<svg xmlns="http://www.w3.org/2000/svg" xmlns:svg="http://www.w3.org/2000/svg" xmlns:xlink="http://www.w3.org/1999/xlink" id="svg8" width="800" height="464" version="1.1" viewBox="0 0 211.667 122.767"><defs id="defs2"><marker style="overflow:visible" id="marker4430" orient="auto" refX="0" refY="0"><path transform="matrix(-0.4,0,0,-0.4,-4,0)" style="fill:#000;fill-opacity:1;fill-rule:evenodd;stroke:#000;stroke-width:1.00000003pt;stroke-opacity:1" id="path4428" d="M 0,0 5,-5 -12.5,0 5,5 Z"/></marker><marker id="marker2811" orient="auto" refX="0" refY="0" style="overflow:visible"><path id="path2809" d="M 0,0 5,-5 -12.5,0 5,5 Z" style="fill:#000;fill-opacity:1;fill-rule:evenodd;stroke:#000;stroke-width:1.00000003pt;stroke-opacity:1" transform="matrix(-0.4,0,0,-0.4,-4,0)"/></marker><marker style="overflow:visible" id="marker1275" orient="auto" refX="0" refY="0"><path transform="matrix(-0.4,0,0,-0.4,-4,0)" style="fill:#000;fill-opacity:1;fill-rule:evenodd;stroke:#000;stroke-width:1.00000003pt;stroke-opacity:1" id="path1273" d="M 0,0 5,-5 -12.5,0 5,5 Z"/></marker><marker style="overflow:visible" id="marker56533" orient="auto" refX="0" refY="0"><path transform="matrix(-0.4,0,0,-0.4,-4,0)" style="fill:#000;fill-opacity:1;fill-rule:evenodd;stroke:#000;stroke-width:1.00000003pt;stroke-opacity:1" id="path56531" d="M 0,0 5,-5 -12.5,0 5,5 Z"/></marker><marker id="marker53751" orient="auto" refX="0" refY="0" style="overflow:visible"><path id="path53749" d="M 0,0 5,-5 -12.5,0 5,5 Z" style="fill:#000;fill-opacity:1;fill-rule:evenodd;stroke:#000;stroke-width:1.00000003pt;stroke-opacity:1" transform="matrix(-0.4,0,0,-0.4,-4,0)"/></marker><marker style="overflow:visible" id="marker37787" orient="auto" refX="0" refY="0"><path transform="matrix(-0.4,0,0,-0.4,-4,0)" style="fill:#000;fill-opacity:1;fill-rule:evenodd;stroke:#000;stroke-width:1.00000003pt;stroke-opacity:1" id="path37785" d="M 0,0 5,-5 -12.5,0 5,5 Z"/></marker><marker id="marker1643" orient="auto" refX="0" refY="0" style="overflow:visible"><path id="path1641" d="M 0,0 5,-5 -12.5,0 5,5 Z" style="fill:#000;fill-opacity:1;fill-rule:evenodd;stroke:#000;stroke-width:1.00000003pt;stroke-opacity:1" transform="matrix(-0.4,0,0,-0.4,-4,0)"/></marker><marker id="marker3997" orient="auto" refX="0" refY="0" style="overflow:visible"><path id="path3995" d="M 0,0 5,-5 -12.5,0 5,5 Z" style="fill:#000;fill-opacity:1;fill-rule:evenodd;stroke:#000;stroke-width:1.00000003pt;stroke-opacity:1" transform="matrix(-0.4,0,0,-0.4,-4,0)"/></marker><marker id="marker25461" orient="auto" refX="0" refY="0" style="overflow:visible"><path id="path25459" d="M 0,0 5,-5 -12.5,0 5,5 Z" style="fill:#000;fill-opacity:1;fill-rule:evenodd;stroke:#000;stroke-width:1.00000003pt;stroke-opacity:1" transform="matrix(-0.4,0,0,-0.4,-4,0)"/></marker><marker id="marker2311" orient="auto" refX="0" refY="0" style="overflow:visible"><path id="path2309" d="M 0,0 5,-5 -12.5,0 5,5 Z" style="fill:#000;fill-opacity:1;fill-rule:evenodd;stroke:#000;stroke-width:1.00000003pt;stroke-opacity:1" transform="matrix(-0.4,0,0,-0.4,-4,0)"/></marker><marker id="marker2149" orient="auto" refX="0" refY="0" style="overflow:visible"><path id="path2147" d="M 0,0 5,-5 -12.5,0 5,5 Z" style="fill:#000;fill-opacity:1;fill-rule:evenodd;stroke:#000;stroke-width:1.00000003pt;stroke-opacity:1" transform="matrix(-0.4,0,0,-0.4,-4,0)"/></marker><marker style="overflow:visible" id="marker1999" orient="auto" refX="0" refY="0"><path transform="matrix(-0.4,0,0,-0.4,-4,0)" style="fill:#000;fill-opacity:1;fill-rule:evenodd;stroke:#000;stroke-width:1.00000003pt;stroke-opacity:1" id="path1997" d="M 0,0 5,-5 -12.5,0 5,5 Z"/></marker><marker id="Arrow2Lend" orient="auto" refX="0" refY="0" style="overflow:visible"><path id="path1074" style="fill:#000;fill-opacity:1;fill-rule:evenodd;stroke:#000;stroke-width:.625;stroke-linejoin:round;stroke-opacity:1" d="M 8.7185878,4.0337352 -2.2072895,0.01601326 8.7185884,-4.0017078 c -1.7454984,2.3720609 -1.7354408,5.6174519 -6e-7,8.035443 z" transform="matrix(-1.1,0,0,-1.1,-1.1,0)"/></marker><marker id="Arrow1Lend" orient="auto" refX="0" refY="0" style="overflow:visible"><path id="path1056" d="M 0,0 5,-5 -12.5,0 5,5 Z" style="fill:#000;fill-opacity:1;fill-rule:evenodd;stroke:#000;stroke-width:1.00000003pt;stroke-opacity:1" transform="matrix(-0.8,0,0,-0.8,-10,0)"/></marker></defs><metadata id="metadata5"/><g id="layer1" style="display:inline" transform="translate(0,-174.23336)"><rect style="fill:#ffb380;fill-opacity:1;stroke:#000;stroke-width:.26458332;stroke-miterlimit:4;stroke-dasharray:none;stroke-opacity:1" id="rect1049" width="42.333" height="105.833" x="97.367" y="186.933"/><path style="fill:none;stroke:#000;stroke-width:.5291667;stroke-linecap:butt;stroke-linejoin:miter;stroke-miterlimit:4;stroke-dasharray:none;stroke-opacity:1" id="path1150" d="M 8.4666663,190.10837 H 38.099999 v 33.86666 H 8.4666663"/><path style="fill:none;stroke:#000;stroke-width:.5291667;stroke-linecap:butt;stroke-linejoin:miter;stroke-miterlimit:4;stroke-dasharray:none;stroke-opacity:1" id="path1152" d="M 8.4666663,208.10003 H 118.53333 v 28.37681 m 0,18.33469 v 21.02183 H 190.5"/><path style="fill:none;stroke:#000;stroke-width:.5291667;stroke-linecap:butt;stroke-linejoin:miter;stroke-miterlimit:4;stroke-dasharray:none;stroke-opacity:1" id="path1118" d="m 173.56669,263.13336 h 29.63333"/><path style="fill:none;stroke:#000;stroke-width:.5291667;stroke-linecap:butt;stroke-linejoin:miter;stroke-miterlimit:4;stroke-dasharray:none;stroke-opacity:1" id="path1120" d="m 203.20002,288.53336 h -29.63333 v -38.09999 h 16.93333"/><flowRoot id="flowRoot25" transform="scale(0.26458333)" xml:space="preserve" style="font-style:normal;font-weight:400;font-size:40px;line-height:1.25;font-family:sans-serif;letter-spacing:0;word-spacing:0;fill:#000;fill-opacity:1;stroke:none"><flowRegion id="flowRegion27"><rect id="rect29" width="16" height="80" x="368" y="146.52"/></flowRegion><flowPara id="flowPara31"/></flowRoot><path style="display:inline;fill:#eef4d7;fill-opacity:1;stroke:#000;stroke-width:.26458332;stroke-miterlimit:4;stroke-dasharray:none" id="path4188" d="m 38.027059,194.04736 c -2.965093,0 -5.375482,2.02349 -5.53455,4.57144 -2.925385,0.13854 -5.248632,2.23792 -5.248632,4.82047 0,1.64727 0.945659,3.11068 2.389455,3.98444 -1.443796,0.87374 -2.389455,2.33713 -2.389455,3.98442 0,2.67209 2.487048,4.83825 5.554973,4.83825 0.814922,0 1.590121,-0.15234 2.287341,-0.4269 -0.0014,0.0473 0,0.0947 0,0.14231 0,2.67207 2.487048,4.83824 5.554973,4.83824 1.88692,0 3.550307,-0.82858 4.554262,-2.08115 0.921713,0.59222 2.054777,0.94275 3.288053,0.94275 3.067926,0 5.554973,-2.16618 5.554973,-4.83826 0,-0.29104 -0.04555,-0.57691 -0.102105,-0.8538 2.963787,-0.10268 5.330322,-2.23169 5.330322,-4.83824 0,-1.43091 -0.724832,-2.70733 -1.858464,-3.59312 0.351047,-0.63455 0.551412,-1.34742 0.551412,-2.09894 0,-2.67212 -2.487046,-4.83825 -5.554973,-4.83825 -0.334155,0 -0.66238,0.0397 -0.980289,0.0889 -0.117871,-2.58138 -2.56228,-4.64258 -5.554972,-4.64258 -1.533964,0 -2.915904,0.54746 -3.921158,1.42302 -1.005254,-0.87556 -2.387194,-1.42302 -3.921158,-1.42302 z"/><g style="display:inline" id="g3150" transform="matrix(0.26458333,0,0,0.26458333,112.15595,44.387082)"><path id="path3789" d="m 272.5,764.42468 v 19.84375 c 0,9.52811 12.85831,14.5 23.59375,14.5 10.73544,0 23.46875,-6.29616 23.46875,-16.15625 v -18.1875 z" style="fill:teal;stroke:#000;stroke-width:1;stroke-miterlimit:4;stroke-dasharray:none;stroke-opacity:1"/><circle id="path3771" cx="74.286" cy="235.219" r="48.571" transform="matrix(0.48595445,0,0,0.29851852,260.00403,694.04082)" style="fill:teal;stroke:#000;stroke-width:2.62552762;stroke-miterlimit:4;stroke-dasharray:none;stroke-opacity:1"/><path id="path3800" d="m 283,757.36218 25,10" style="fill:none;stroke:#fff;stroke-width:1px;stroke-linecap:butt;stroke-linejoin:miter;stroke-opacity:1"/><path id="path3802" d="m 308,757.36218 -25,10" style="fill:none;stroke:#fff;stroke-width:1px;stroke-linecap:butt;stroke-linejoin:miter;stroke-opacity:1"/></g><use id="use1065" width="100%" height="100%" x="0" y="0" transform="translate(12.7,12.302984)" xlink:href="#g3150"/><use id="use1067" width="100%" height="100%" x="0" y="0" transform="translate(-12.699999,13.097015)" xlink:href="#use1065"/><use id="use1069" width="100%" height="100%" x="0" y="0" transform="translate(12.699999,12.302985)" xlink:href="#use1067"/><rect style="fill:#fff;fill-opacity:1;stroke:#000;stroke-width:.26458332;stroke-miterlimit:4;stroke-dasharray:none;stroke-opacity:1" id="rect1071" width="33.867" height="16.933" x="101.6" y="199.633"/><rect style="fill:#fff;fill-opacity:1;stroke:#000;stroke-width:.26458332;stroke-miterlimit:4;stroke-dasharray:none;stroke-opacity:1" id="rect1073" width="33.867" height="16.933" x="101.6" y="271.6"/><g id="g1104" transform="translate(69.849998,-10.054168)"><path style="fill:#b3b3b3;fill-opacity:1;stroke:#000;stroke-width:.26458332;stroke-miterlimit:4;stroke-dasharray:none;stroke-opacity:1" id="path1078" d="m 38.099999,244.08337 2e-6,4.76249 c -9e-6,1.169 4.738313,2.11667 10.583333,2.11667 5.84502,0 10.583342,-0.94767 10.583333,-2.11667 l -2e-6,-4.76249"/><path d="m 59.266667,260.48754 c 9e-6,1.169 -4.738313,2.11667 -10.583333,2.11667 -5.84502,0 -10.583342,-0.94767 -10.583333,-2.11667 v 4.7625 c -9e-6,1.169 4.738313,2.11667 10.583333,2.11667 5.84502,0 10.583342,-0.94767 10.583333,-2.11667 z" style="fill:#b3b3b3;fill-opacity:1;stroke:#000;stroke-width:.26458332;stroke-miterlimit:4;stroke-dasharray:none;stroke-opacity:1" id="path1084"/><path d="m 59.266667,249.9042 c 9e-6,1.169 -4.738313,2.11667 -10.583333,2.11667 -5.84502,0 -10.583342,-0.94767 -10.583333,-2.11667 v 4.23333 c -9e-6,1.169 4.738313,2.11667 10.583333,2.11667 5.84502,0 10.583342,-0.94767 10.583333,-2.11667 z" style="fill:#b3b3b3;fill-opacity:1;stroke:#000;stroke-width:.26458332;stroke-miterlimit:4;stroke-dasharray:none;stroke-opacity:1" id="path1090"/><path d="m 59.266667,255.19587 c 9e-6,1.169 -4.738313,2.11667 -10.583333,2.11667 -5.84502,0 -10.583342,-0.94767 -10.583333,-2.11667 v 4.23333 c -9e-6,1.169 4.738313,2.11667 10.583333,2.11667 5.84502,0 10.583342,-0.94767 10.583333,-2.11667 z" style="fill:#b3b3b3;fill-opacity:1;stroke:#000;stroke-width:.26458332;stroke-miterlimit:4;stroke-dasharray:none;stroke-opacity:1" id="path1092"/><path id="path1075" d="m 59.266667,244.08336 a 10.583333,2.1166666 0 0 1 -10.583333,2.11667 10.583333,2.1166666 0 0 1 -10.583333,-2.11667 10.583333,2.1166666 0 0 1 10.583333,-2.11667 10.583333,2.1166666 0 0 1 10.583333,2.11667 z" style="fill:#ccc;fill-opacity:1;stroke:#000;stroke-width:.26458332;stroke-miterlimit:4;stroke-dasharray:none;stroke-opacity:1"/></g><text xml:space="preserve" style="font-style:normal;font-weight:400;font-size:4.23333311px;line-height:1.25;font-family:sans-serif;text-align:center;letter-spacing:0;word-spacing:0;text-anchor:middle;fill:#000;fill-opacity:1;stroke:none;stroke-width:.26458332" id="text1108" x="118.533" y="209.158"><tspan id="tspan1106" x="118.533" y="209.158" style="stroke-width:.26458332">Validator</tspan></text><text xml:space="preserve" style="font-style:normal;font-weight:400;font-size:4.23333311px;line-height:1.25;font-family:sans-serif;text-align:center;letter-spacing:0;word-spacing:0;text-anchor:middle;fill:#000;fill-opacity:1;stroke:none;stroke-width:.26458332" id="text1112" x="118.533" y="279.008"><tspan id="tspan1110" x="118.533" y="279.008" style="stroke-width:.26458332">RTR</tspan><tspan x="118.533" y="284.3" style="stroke-width:.26458332" id="tspan1114">Server</tspan></text><g id="use3037" style="display:inline" transform="matrix(0.26458333,0,0,0.26458333,1.8520831,132.1117)"><path style="display:inline;fill:#e3dedb;stroke:#000;stroke-width:1;stroke-miterlimit:4;stroke-dasharray:none;stroke-dashoffset:0;stroke-opacity:1" id="path3046" d="m 30,194.625 -30,9 v 40 l 30,-9 20,6 v -40 z"/><rect style="display:inline;fill:#ffe680;stroke:#000;stroke-width:1.14458966;stroke-miterlimit:4;stroke-dasharray:none;stroke-dashoffset:0;stroke-opacity:1" id="rect3048" width="20" height="40" x="0" y="1000" transform="matrix(1,0.3,0,1,0,-796.36218)"/><rect id="rect3050" width="30" height="40" x="20" y="1012" transform="matrix(1,-0.3,0,1,0,-796.36218)" style="display:inline;fill:#e3dedb;stroke:#000;stroke-width:1;stroke-miterlimit:4;stroke-dasharray:none;stroke-dashoffset:0;stroke-opacity:1"/><rect id="rect3052" width="20" height="40" x="0" y="1000" transform="matrix(1,0.3,0,1,0,-796.36218)" style="display:inline;fill:#e3dedb;stroke:#000;stroke-width:1;stroke-miterlimit:4;stroke-dasharray:none;stroke-dashoffset:0;stroke-opacity:1"/><rect style="display:inline;fill:none;stroke:#000;stroke-width:1;stroke-miterlimit:4;stroke-dasharray:none;stroke-dashoffset:0;stroke-opacity:1" id="rect3054" width="15" height="3" x="2.5" y="210" transform="skewY(16.699244)"/><rect id="rect3056" width="15" height="3" x="2.5" y="216" transform="skewY(16.699244)" style="display:inline;fill:none;stroke:#000;stroke-width:1;stroke-miterlimit:4;stroke-dasharray:none;stroke-dashoffset:0;stroke-opacity:1"/><rect style="display:inline;fill:none;stroke:#000;stroke-width:1;stroke-miterlimit:4;stroke-dasharray:none;stroke-dashoffset:0;stroke-opacity:1" id="rect3058" width="15" height="2" x="2.5" y="239" transform="skewY(16.699244)"/><circle id="path3060" cx="9.5" cy="227" r="2.5" style="fill:none;stroke:#000;stroke-width:1.18426466;stroke-miterlimit:4;stroke-dasharray:none;stroke-dashoffset:0;stroke-opacity:1" transform="matrix(0.71302118,0,0,1,2.0088518,0)"/></g><use id="use1144" width="100%" height="100%" x="0" y="0" transform="translate(5.0000262e-8,16.933334)" xlink:href="#use3037"/><use id="use1148" width="100%" height="100%" x="0" y="0" transform="translate(5.0000021e-8,33.866667)" xlink:href="#use3037"/><g id="use5499" transform="translate(37.287877,-88.051281)" style="display:inline"><path style="fill:#fff;stroke:#000;stroke-width:.3175;stroke-linecap:butt;stroke-linejoin:miter;stroke-miterlimit:4;stroke-dasharray:none;stroke-opacity:1" id="path1169" d="m 32.808329,280.0667 c 1.058333,0 2.116666,-1.05833 2.116666,-2.11666 0,-1.05834 -1.058333,-2.11667 -2.116666,-2.11667 H 20.10833 c 1.058334,0 2.116667,1.05833 2.116667,2.11667 0,1.05833 -1.058333,2.11666 -2.116667,2.11666 z"/><path style="fill:#fff;stroke:#000;stroke-width:.3175;stroke-linecap:butt;stroke-linejoin:miter;stroke-miterlimit:4;stroke-dasharray:none;stroke-opacity:1" id="path1171" d="m 15.874997,266.30837 c 1.058334,0 2.116667,1.05834 2.11667,2.11664 l -3e-6,9.52503 c 0,1.05833 1.058333,2.11666 2.116666,2.11666 h 12.699999 c -1.058334,0 -2.116667,-1.05833 -2.116667,-2.11666 l 8e-6,-9.52503 c -8e-6,-1.0583 -1.058341,-2.11664 -2.116673,-2.11667 z"/><path style="fill:maroon;stroke:#000;stroke-width:.26458332;stroke-linecap:butt;stroke-linejoin:miter;stroke-miterlimit:4;stroke-dasharray:none;stroke-opacity:1" id="path1173" d="m 24.341663,277.95003 -1.058333,5.29167 1.058333,2.11667 1.058333,-1.05834 v -6.35 z"/><path style="fill:maroon;stroke:#000;stroke-width:.26458332;stroke-linecap:butt;stroke-linejoin:miter;stroke-miterlimit:4;stroke-dasharray:none;stroke-opacity:1" id="path1175" d="m 25.399996,277.95003 h 1.058334 l 1.058333,5.29167 -1.058333,2.11667 -1.058334,-1.05834 z"/><path style="fill:#ff0;stroke:#000;stroke-width:.26458332;stroke-miterlimit:4;stroke-dasharray:none" id="path1177" d="m 27.760187,278.85894 -0.10198,0.44702 -0.533634,-0.0447 -0.187229,0.41854 -0.514654,-0.14798 -0.265283,0.37396 -0.475896,-0.24553 -0.333143,0.31502 -0.418851,-0.33366 -0.388199,0.24398 -0.345709,-0.40896 -0.428337,0.16355 -0.259282,-0.46855 -0.452015,0.0768 -0.16289,-0.51013 -0.458323,-0.0128 -0.06024,-0.5321 -0.447017,-0.10198 0.04473,-0.53364 -0.418532,-0.18723 0.147974,-0.51465 -0.373963,-0.26528 0.245535,-0.4759 -0.315024,-0.33314 0.33366,-0.41885 -0.243978,-0.3882 0.408963,-0.34571 -0.163556,-0.42834 0.468549,-0.25928 -0.07685,-0.45202 0.510129,-0.16289 0.01281,-0.45832 0.532106,-0.0602 0.101979,-0.44701 0.533634,0.0447 0.187229,-0.41853 0.514654,0.14798 0.265283,-0.37397 0.475897,0.24554 0.333142,-0.31503 0.418851,0.33366 0.388199,-0.24397 0.345709,0.40896 0.428338,-0.16356 0.259281,0.46855 0.452016,-0.0768 0.16289,0.51013 0.458322,0.0128 0.06024,0.53211 0.447017,0.10198 -0.04473,0.53363 0.418532,0.18723 -0.147975,0.51466 0.373964,0.26528 -0.245536,0.4759 0.315024,0.33314 -0.33366,0.41885 0.243978,0.3882 -0.408963,0.34571 0.163556,0.42834 -0.468549,0.25928 0.07685,0.45201 -0.51013,0.16289 -0.01281,0.45833 z"/><ellipse cx="25.4" cy="275.833" rx="3.175" ry="3.175" style="fill:#ff0;stroke:#000;stroke-width:.26458332;stroke-miterlimit:4;stroke-dasharray:none" id="ellipse1179"/><ellipse id="ellipse1181" cx="25.4" cy="275.833" rx="2.117" ry="2.117" style="fill:#ff0;stroke:#000;stroke-width:.26458332;stroke-miterlimit:4;stroke-dasharray:none"/><path style="fill:#fff;stroke:#000;stroke-width:.3175;stroke-linecap:butt;stroke-linejoin:miter;stroke-miterlimit:4;stroke-dasharray:none;stroke-opacity:1" id="path1183" d="m 28.574995,266.30836 c -1.058333,0 -2.116666,1.05834 -2.116666,2.11667 0,1.05833 1.058333,2.11667 2.116666,2.11667 H 15.874997 c -1.058333,0 -2.116667,-1.05834 -2.116667,-2.11667 0,-1.05833 1.058334,-2.11667 2.116667,-2.11667 z"/></g><use id="use1219" width="100%" height="100%" x="0" y="0" transform="translate(1.3412915,2.8554615)" xlink:href="#use5499"/><g id="g5436" transform="translate(0,5.2916666)"><g id="g2459" transform="translate(52.916666,-104.77496)" style="display:inline"><rect ry="0" style="fill:#fff;fill-opacity:1;stroke:#000;stroke-width:.3175;stroke-miterlimit:4;stroke-dasharray:none;stroke-opacity:1" id="rect2135" width="8.467" height="12.7" x="22.225" y="279.008"/><rect style="fill:none;fill-opacity:1;stroke:#000;stroke-width:.3175;stroke-miterlimit:4;stroke-dasharray:none;stroke-opacity:1" id="rect2133" width="7.408" height="11.642" x="22.754" y="279.538"/></g><use id="use1221" width="100%" height="100%" x="0" y="0" transform="translate(2.1166667,2.1166648)" xlink:href="#g2459"/><use id="use1223" width="100%" height="100%" x="0" y="0" transform="translate(2.1166666,2.1166666)" xlink:href="#use1221"/></g><use id="use1225" width="100%" height="100%" x="0" y="0" transform="translate(3.1878112,4.8333434)" xlink:href="#use5499"/><path style="fill:none;stroke:#000;stroke-width:.79374999;stroke-linecap:butt;stroke-linejoin:miter;stroke-miterlimit:4;stroke-dasharray:none;stroke-opacity:1;marker-end:url(#marker2311)" id="path1227" d="M 63.499997,203.8667 H 84.666663"/><path id="path1271" d="m 105.83333,220.80003 v 12.7" style="fill:none;stroke:#000;stroke-width:.79374999;stroke-linecap:butt;stroke-linejoin:miter;stroke-miterlimit:4;stroke-dasharray:none;stroke-opacity:1;marker-end:url(#marker1275)"/><path style="fill:none;stroke:#000;stroke-width:.79374999;stroke-linecap:butt;stroke-linejoin:miter;stroke-miterlimit:4;stroke-dasharray:none;stroke-opacity:1;marker-end:url(#marker2811)" id="path2807" d="m 105.83333,254.66669 v 12.7"/><path id="path4426" d="m 143.93333,271.60003 h 21.16666" style="fill:none;stroke:#000;stroke-width:.79374999;stroke-linecap:butt;stroke-linejoin:miter;stroke-miterlimit:4;stroke-dasharray:none;stroke-opacity:1;marker-end:url(#marker4430)"/><use id="use5423" width="100%" height="100%" x="0" y="0" transform="translate(6.3500006,11.641638)" xlink:href="#g2459"/><use id="use5438" width="100%" height="100%" x="0" y="0" transform="translate(14.816665,39.158289)" xlink:href="#g5436"/><use id="use5440" width="100%" height="100%" x="0" y="0" transform="translate(14.816667,73.024969)" xlink:href="#g5436"/><use id="use5610" width="100%" height="100%" x="0" y="0" transform="translate(69.849995,73.024954)" xlink:href="#g5436"/><text xml:space="preserve" style="font-style:normal;font-weight:400;font-size:3.52777767px;line-height:1.25;font-family:sans-serif;text-align:center;letter-spacing:0;word-spacing:0;text-anchor:middle;fill:#000;fill-opacity:1;stroke:none;stroke-width:.26458332" id="text995" x="118.533" y="194.342"><tspan id="tspan993" x="118.533" y="194.342" style="font-size:4.93888903px;text-align:center;text-anchor:middle;stroke-width:.26458332">Fort</tspan></text></g></svg>