<?xml version="1.0" encoding="utf-8"?>
<!-- Generator: Adobe Illustrator 21.1.0, SVG Export Plug-In . SVG Version: 6.00 Build 0)  -->
<svg version="1.1" id="Layer_1" xmlns="http://www.w3.org/2000/svg" x="0px" y="0px"
     viewBox="105 345 385 163" style="enable-background:new 105 345 385 163;" xml:space="preserve">
<style type="text/css">
	.st0{fill:#FAA61A;}
	*{fill:#ffffff;}
</style>
<g>
	<g>
		<g>
			<g>
				<g>
					<path d="M268.8,432.8c0.2,2,0.3,4.1,0.3,6.4c0,11.6-2.8,20-8.3,25.2c-5.5,5.2-11.8,7.7-18.8,7.7c-8.9,0-15.3-2.8-19.3-8.4
						c-2.8-3.9-4.6-9.1-5.4-15.5l-19.1-16.1c-3.9-3.3-5.2-6.6-4.1-9.8c0.7-1.8,2.7-4.8,8.8-4.8c3.9,0,9.4,1.3,12.7,4.1l3.2,2.7
						c1.3-3.7,3.1-6.8,5.5-9.3c5-5.2,11.2-7.8,18.5-7.8c3.4,0,6.5,0.4,9.3,1.2c5.4-7.9,11.2-15.7,17.3-23.2
						c-7.1-2.4-15.1-3.6-24-3.6c-17.7,0-32.6,5.5-44.7,16.6c-12.1,11-18.1,25.4-18.1,43.2c0,18.1,4.9,32.1,14.6,41.9
						c9.8,9.8,24.2,14.7,43.2,14.7c18.1,0,33-5.5,45-16.6c11.9-11.1,17.9-25.6,17.9-43.5c0-16.1-3.7-28.6-11.2-37.7
						C283.7,410.5,275.9,421.4,268.8,432.8z"/>
					<path d="M149.6,408V426h18.2v25.4h-18.2v46.4h-35.1V381.4h68V408H149.6z"/>
					<path d="M369,497.8l-23-44.6h-1.2v44.6h-33.9V382.1c4.4,0,14.3-0.1,23.6-0.3c9.3-0.2,15.2-0.3,17.7-0.3
						c14.6,0,25.6,2.8,33.2,8.4c7.5,5.6,11.3,14.4,11.3,26.6c0,6.8-1.8,13.1-5.4,18.7c-3.6,5.6-8.6,9.6-15,11.9l8.1,12.9l22.3,37.9
						H369z M350.6,406.8h-5.8v24l5.1,0.7c4.4,0,7.9-1.1,10.4-3.3c2.5-2.2,3.8-5.4,3.8-9.5c0-3.6-1.1-6.5-3.2-8.7
						C358.8,407.9,355.4,406.8,350.6,406.8z"/>
					<path d="M458.8,408v89.9H428V408h-24.2v-26.5H483V408H458.8z"/>
				</g>
				<path class="st0" d="M288,371.2c-20.5,22.4-38,47-52.3,73.8c-7.8-6.6-15.5-13.1-23.3-19.7c-4.6-3.9-19.6-4.5-11,2.8
					c11.2,9.4,22.3,18.8,33.5,28.3c2.3,2,11.2,6.6,13.5,2.2c14.5-28.6,32.4-54.7,54.1-78.4C306.9,375.3,291.6,367.3,288,371.2z"/>
			</g>
		</g>
	</g>
	<g>
		<path class="st0" d="M123.1,364.9L123.1,364.9l2.4-14.5h6.2l-4.9,22.4h-7.3l-4.9-22.4h6.4L123.1,364.9z"/>
		<path class="st0" d="M144.3,370.9c-1.6,1.8-3,2.7-5.5,2.7c-3.6,0-5.8-2.4-5.8-6c0-5.1,2.8-6.7,5.6-7.6c2.8-0.9,5.5-1.2,5.5-3.6
			c0-1.2-0.7-2.3-2-2.3c-2.3,0-2.3,1.6-2.4,3.5h-6.4c-0.1-2.8,0.7-4.7,2.3-6s3.8-1.8,6.3-1.8c6.3,0,8.6,1.9,8.6,6.8v13.7
			c0,0.8,0.2,1.7,0.5,2.5h-6.2L144.3,370.9z M144,362c-1.3,0.7-2.4,1-3.2,1.6c-0.8,0.6-1.5,1.4-1.5,2.9c0,1.4,0.8,2.4,2.4,2.4
			c1.9,0,2.3-2,2.3-3.4V362z"/>
		<path class="st0" d="M154.4,372.9v-30h6.4v30H154.4z"/>
		<path class="st0" d="M165.5,348.2v-5.4h6.4v5.4H165.5z M165.5,372.9v-22.4h6.4v22.4H165.5z"/>
		<path class="st0" d="M186.5,372.9v-2.6h-0.1c-1.2,2.2-3.1,3.3-5,3.3c-4.6-0.2-5.6-4.5-5.6-8.3v-7.8c0-3.5,1.2-7.7,5.4-7.7
			c1.7,0,3.3,0.7,4.6,2.7h0.1v-9.6h6.4v30H186.5z M182.3,364.8c0,1.3,0,3.6,1.8,3.6c1.7,0,2-1.7,2-3.9v-5.3c0-1.9-0.3-4.2-1.8-4.2
			c-2,0-2,2.5-2,4V364.8z"/>
		<path class="st0" d="M206.6,370.9c-1.6,1.8-3,2.7-5.5,2.7c-3.6,0-5.8-2.4-5.8-6c0-5.1,2.8-6.7,5.6-7.6c2.8-0.9,5.5-1.2,5.5-3.6
			c0-1.2-0.7-2.3-2-2.3c-2.3,0-2.3,1.6-2.4,3.5h-6.4c-0.1-2.8,0.7-4.7,2.3-6s3.8-1.8,6.3-1.8c6.3,0,8.6,1.9,8.6,6.8v13.7
			c0,0.8,0.2,1.7,0.5,2.5H207L206.6,370.9z M206.3,362c-1.3,0.7-2.4,1-3.2,1.6c-0.8,0.6-1.5,1.4-1.5,2.9c0,1.4,0.8,2.4,2.4,2.4
			c1.9,0,2.3-2,2.3-3.4V362z"/>
		<path class="st0" d="M226.5,372.9v-2.6h-0.1c-1.2,2.2-3.1,3.3-5,3.3c-4.6-0.2-5.6-4.5-5.6-8.3v-7.8c0-3.5,1.2-7.7,5.4-7.7
			c1.7,0,3.3,0.7,4.6,2.7h0.1v-9.6h6.4v30H226.5z M222.3,364.8c0,1.3,0,3.6,1.8,3.6c1.7,0,2-1.7,2-3.9v-5.3c0-1.9-0.3-4.2-1.8-4.2
			c-2,0-2,2.5-2,4V364.8z"/>
		<path class="st0" d="M236,357.5c0-5.8,3.4-7.7,8.3-7.7c5.6,0,8.3,2.6,8.3,7.7v9.1c-0.3,5.1-3.5,7-8.3,7c-4.6,0-8.3-1.8-8.3-7
			V357.5z M242.4,367c0.1,1.3,0.6,2,2,2s1.8-0.7,2-2v-10c0-1.4-0.5-2.6-2-2.6s-2,1.2-2,2.6V367z"/>
		<path class="st0" d="M261.9,350.4v3.4h0.1c0.7-2.4,2.3-4,4.9-4v7.2c-0.6-0.1-1.3-0.2-1.9-0.2c-1.8,0-2.5,0.4-2.6,2.2v13.8H256
			v-22.4H261.9z"/>
	</g>
</g>
</svg>
