<svg xmlns="http://www.w3.org/2000/svg" xmlns:svg="http://www.w3.org/2000/svg" xmlns:xlink="http://www.w3.org/1999/xlink" id="svg8" width="732" height="408" version="1.1" viewBox="0 0 193.675 107.95"><defs id="defs2"><marker style="overflow:visible" id="marker56533" orient="auto" refX="0" refY="0"><path transform="matrix(-0.4,0,0,-0.4,-4,0)" style="fill:#000;fill-opacity:1;fill-rule:evenodd;stroke:#000;stroke-width:1.00000003pt;stroke-opacity:1" id="path56531" d="M 0,0 5,-5 -12.5,0 5,5 Z"/></marker><marker id="marker53751" orient="auto" refX="0" refY="0" style="overflow:visible"><path id="path53749" d="M 0,0 5,-5 -12.5,0 5,5 Z" style="fill:#000;fill-opacity:1;fill-rule:evenodd;stroke:#000;stroke-width:1.00000003pt;stroke-opacity:1" transform="matrix(-0.4,0,0,-0.4,-4,0)"/></marker><marker style="overflow:visible" id="marker37787" orient="auto" refX="0" refY="0"><path transform="matrix(-0.4,0,0,-0.4,-4,0)" style="fill:#000;fill-opacity:1;fill-rule:evenodd;stroke:#000;stroke-width:1.00000003pt;stroke-opacity:1" id="path37785" d="M 0,0 5,-5 -12.5,0 5,5 Z"/></marker><marker id="marker1643" orient="auto" refX="0" refY="0" style="overflow:visible"><path id="path1641" d="M 0,0 5,-5 -12.5,0 5,5 Z" style="fill:#000;fill-opacity:1;fill-rule:evenodd;stroke:#000;stroke-width:1.00000003pt;stroke-opacity:1" transform="matrix(-0.4,0,0,-0.4,-4,0)"/></marker><marker id="marker3997" orient="auto" refX="0" refY="0" style="overflow:visible"><path id="path3995" d="M 0,0 5,-5 -12.5,0 5,5 Z" style="fill:#000;fill-opacity:1;fill-rule:evenodd;stroke:#000;stroke-width:1.00000003pt;stroke-opacity:1" transform="matrix(-0.4,0,0,-0.4,-4,0)"/></marker><marker style="overflow:visible" id="marker2353" orient="auto" refX="0" refY="0"><path transform="matrix(-0.4,0,0,-0.4,-4,0)" style="fill:#000;fill-opacity:1;fill-rule:evenodd;stroke:#000;stroke-width:1.00000003pt;stroke-opacity:1" id="path2351" d="M 0,0 5,-5 -12.5,0 5,5 Z"/></marker><marker id="marker25461" orient="auto" refX="0" refY="0" style="overflow:visible"><path id="path25459" d="M 0,0 5,-5 -12.5,0 5,5 Z" style="fill:#000;fill-opacity:1;fill-rule:evenodd;stroke:#000;stroke-width:1.00000003pt;stroke-opacity:1" transform="matrix(-0.4,0,0,-0.4,-4,0)"/></marker><marker id="marker2311" orient="auto" refX="0" refY="0" style="overflow:visible"><path id="path2309" d="M 0,0 5,-5 -12.5,0 5,5 Z" style="fill:#000;fill-opacity:1;fill-rule:evenodd;stroke:#000;stroke-width:1.00000003pt;stroke-opacity:1" transform="matrix(-0.4,0,0,-0.4,-4,0)"/></marker><marker id="marker2149" orient="auto" refX="0" refY="0" style="overflow:visible"><path id="path2147" d="M 0,0 5,-5 -12.5,0 5,5 Z" style="fill:#000;fill-opacity:1;fill-rule:evenodd;stroke:#000;stroke-width:1.00000003pt;stroke-opacity:1" transform="matrix(-0.4,0,0,-0.4,-4,0)"/></marker><marker style="overflow:visible" id="marker1999" orient="auto" refX="0" refY="0"><path transform="matrix(-0.4,0,0,-0.4,-4,0)" style="fill:#000;fill-opacity:1;fill-rule:evenodd;stroke:#000;stroke-width:1.00000003pt;stroke-opacity:1" id="path1997" d="M 0,0 5,-5 -12.5,0 5,5 Z"/></marker><marker id="Arrow2Lend" orient="auto" refX="0" refY="0" style="overflow:visible"><path id="path1074" style="fill:#000;fill-opacity:1;fill-rule:evenodd;stroke:#000;stroke-width:.625;stroke-linejoin:round;stroke-opacity:1" d="M 8.7185878,4.0337352 -2.2072895,0.01601326 8.7185884,-4.0017078 c -1.7454984,2.3720609 -1.7354408,5.6174519 -6e-7,8.035443 z" transform="matrix(-1.1,0,0,-1.1,-1.1,0)"/></marker><marker id="Arrow1Lend" orient="auto" refX="0" refY="0" style="overflow:visible"><path id="path1056" d="M 0,0 5,-5 -12.5,0 5,5 Z" style="fill:#000;fill-opacity:1;fill-rule:evenodd;stroke:#000;stroke-width:1.00000003pt;stroke-opacity:1" transform="matrix(-0.8,0,0,-0.8,-10,0)"/></marker></defs><metadata id="metadata5"/><g id="layer1" style="display:inline" transform="translate(0,-189.05003)"><flowRoot id="flowRoot25" transform="scale(0.26458333)" xml:space="preserve" style="font-style:normal;font-weight:400;font-size:40px;line-height:1.25;font-family:sans-serif;letter-spacing:0;word-spacing:0;fill:#000;fill-opacity:1;stroke:none"><flowRegion id="flowRegion27"><rect id="rect29" width="16" height="80" x="368" y="146.52"/></flowRegion><flowPara id="flowPara31"/></flowRoot><g id="g1049" transform="translate(22.224998,-47.625002)"><path id="path19" d="m 32.808329,280.0667 c 1.058333,0 2.116666,-1.05833 2.116666,-2.11666 0,-1.05834 -1.058333,-2.11667 -2.116666,-2.11667 H 20.10833 c 1.058334,0 2.116667,1.05833 2.116667,2.11667 0,1.05833 -1.058333,2.11666 -2.116667,2.11666 z" style="fill:#fff;stroke:#000;stroke-width:.3175;stroke-linecap:butt;stroke-linejoin:miter;stroke-miterlimit:4;stroke-dasharray:none;stroke-opacity:1"/><path id="path16" d="m 15.874997,266.30837 c 1.058334,0 2.116667,1.05834 2.11667,2.11664 l -3e-6,9.52503 c 0,1.05833 1.058333,2.11666 2.116666,2.11666 h 12.699999 c -1.058334,0 -2.116667,-1.05833 -2.116667,-2.11666 l 8e-6,-9.52503 c -8e-6,-1.0583 -1.058341,-2.11664 -2.116673,-2.11667 z" style="fill:#fff;stroke:#000;stroke-width:.3175;stroke-linecap:butt;stroke-linejoin:miter;stroke-miterlimit:4;stroke-dasharray:none;stroke-opacity:1"/><path id="path102" d="m 24.341663,277.95003 -1.058333,5.29167 1.058333,2.11667 1.058333,-1.05834 v -6.35 z" style="fill:maroon;stroke:#000;stroke-width:.26458332;stroke-linecap:butt;stroke-linejoin:miter;stroke-miterlimit:4;stroke-dasharray:none;stroke-opacity:1"/><path id="path104" d="m 25.399996,277.95003 h 1.058334 l 1.058333,5.29167 -1.058333,2.11667 -1.058334,-1.05834 z" style="fill:maroon;stroke:#000;stroke-width:.26458332;stroke-linecap:butt;stroke-linejoin:miter;stroke-miterlimit:4;stroke-dasharray:none;stroke-opacity:1"/><path id="path95" d="m 27.760187,278.85894 -0.10198,0.44702 -0.533634,-0.0447 -0.187229,0.41854 -0.514654,-0.14798 -0.265283,0.37396 -0.475896,-0.24553 -0.333143,0.31502 -0.418851,-0.33366 -0.388199,0.24398 -0.345709,-0.40896 -0.428337,0.16355 -0.259282,-0.46855 -0.452015,0.0768 -0.16289,-0.51013 -0.458323,-0.0128 -0.06024,-0.5321 -0.447017,-0.10198 0.04473,-0.53364 -0.418532,-0.18723 0.147974,-0.51465 -0.373963,-0.26528 0.245535,-0.4759 -0.315024,-0.33314 0.33366,-0.41885 -0.243978,-0.3882 0.408963,-0.34571 -0.163556,-0.42834 0.468549,-0.25928 -0.07685,-0.45202 0.510129,-0.16289 0.01281,-0.45832 0.532106,-0.0602 0.101979,-0.44701 0.533634,0.0447 0.187229,-0.41853 0.514654,0.14798 0.265283,-0.37397 0.475897,0.24554 0.333142,-0.31503 0.418851,0.33366 0.388199,-0.24397 0.345709,0.40896 0.428338,-0.16356 0.259281,0.46855 0.452016,-0.0768 0.16289,0.51013 0.458322,0.0128 0.06024,0.53211 0.447017,0.10198 -0.04473,0.53363 0.418532,0.18723 -0.147975,0.51466 0.373964,0.26528 -0.245536,0.4759 0.315024,0.33314 -0.33366,0.41885 0.243978,0.3882 -0.408963,0.34571 0.163556,0.42834 -0.468549,0.25928 0.07685,0.45201 -0.51013,0.16289 -0.01281,0.45833 z" style="fill:#ff0;stroke:#000;stroke-width:.26458332;stroke-miterlimit:4;stroke-dasharray:none"/><ellipse id="path93" style="fill:#ff0;stroke:#000;stroke-width:.26458332;stroke-miterlimit:4;stroke-dasharray:none" cx="25.4" cy="275.833" rx="3.175" ry="3.175"/><ellipse id="path91" cx="25.4" cy="275.833" style="fill:#ff0;stroke:#000;stroke-width:.26458332;stroke-miterlimit:4;stroke-dasharray:none" rx="2.117" ry="2.117"/><path id="path17" d="m 28.574995,266.30836 c -1.058333,0 -2.116666,1.05834 -2.116666,2.11667 0,1.05833 1.058333,2.11667 2.116666,2.11667 H 15.874997 c -1.058333,0 -2.116667,-1.05834 -2.116667,-2.11667 0,-1.05833 1.058334,-2.11667 2.116667,-2.11667 z" style="fill:#fff;stroke:#000;stroke-width:.3175;stroke-linecap:butt;stroke-linejoin:miter;stroke-miterlimit:4;stroke-dasharray:none;stroke-opacity:1"/></g><path style="fill:none;stroke:#000;stroke-width:.5291667;stroke-linecap:butt;stroke-linejoin:miter;stroke-miterlimit:4;stroke-dasharray:none;stroke-opacity:1;marker-end:url(#marker37787)" id="path1051" d="m 47.624999,241.9667 v 6.35"/><use id="use1411" width="100%" height="100%" x="0" y="0" transform="translate(0.30092225,34.027606)" xlink:href="#g1049"/><path id="path1467" d="m 33.866667,241.9667 -4.233333,6.35" style="fill:none;stroke:#000;stroke-width:.5291667;stroke-linecap:butt;stroke-linejoin:miter;stroke-miterlimit:4;stroke-dasharray:none;stroke-opacity:1;marker-end:url(#marker53751)"/><path id="path1775" d="m 61.38334,241.9667 4.233332,6.35" style="fill:none;stroke:#000;stroke-width:.5291667;stroke-linecap:butt;stroke-linejoin:miter;stroke-miterlimit:4;stroke-dasharray:none;stroke-opacity:1;marker-end:url(#marker56533)"/><g id="g2459" transform="translate(21.166664,4.2333334)"><rect id="rect2133" width="7.408" height="11.642" x="22.754" y="279.538" style="fill:none;fill-opacity:1;stroke:#000;stroke-width:.3175;stroke-miterlimit:4;stroke-dasharray:none;stroke-opacity:1"/><rect id="rect2135" width="8.467" height="12.7" x="22.225" y="279.008" style="fill:none;fill-opacity:1;stroke:#000;stroke-width:.3175;stroke-miterlimit:4;stroke-dasharray:none;stroke-opacity:1" ry="0"/></g><use id="use2461" width="100%" height="100%" x="0" y="0" transform="translate(-9.5249993,9.7366666e-6)" xlink:href="#g2459"/><use id="use2463" width="100%" height="100%" x="0" y="0" transform="translate(9.5250003,9.7366666e-6)" xlink:href="#g2459"/><use id="use5499" width="100%" height="100%" x="0" y="0" transform="translate(49.741658,-28.575002)" xlink:href="#g1049"/><path id="path2269" d="m 80.433333,208.10003 -15.96242,6.29081" style="fill:none;stroke:#000;stroke-width:.5291667;stroke-linecap:butt;stroke-linejoin:miter;stroke-miterlimit:4;stroke-dasharray:none;stroke-opacity:1;marker-end:url(#marker2353)"/><path style="fill:none;stroke:#000;stroke-width:.5291667;stroke-linecap:butt;stroke-linejoin:miter;stroke-miterlimit:4;stroke-dasharray:none;stroke-opacity:1;marker-end:url(#marker3997)" id="path3993" d="m 114.38742,208.04084 16.93335,6.35"/><use id="use14343" width="100%" height="100%" x="0" y="0" transform="translate(0,31.749998)" xlink:href="#path1051"/><use id="use14345" width="100%" height="100%" x="0" y="0" transform="translate(8.4666659,31.749998)" xlink:href="#path1467"/><use id="use14347" width="100%" height="100%" x="0" y="0" transform="translate(-8.4666703,31.749998)" xlink:href="#path1775"/><use id="use14541" width="100%" height="100%" x="0" y="0" transform="translate(-31.749998)" xlink:href="#use1411"/><use id="use14543" width="100%" height="100%" x="0" y="0" transform="translate(-31.749998)" xlink:href="#g2459"/><use id="use14545" width="100%" height="100%" x="0" y="0" transform="translate(-31.749998)" xlink:href="#use2461"/><use id="use14547" width="100%" height="100%" x="0" y="0" transform="translate(-31.749998)" xlink:href="#use2463"/><use id="use14549" width="100%" height="100%" x="0" y="0" transform="translate(-31.749998)" xlink:href="#use14343"/><use id="use14551" width="100%" height="100%" x="0" y="0" transform="translate(-31.749998)" xlink:href="#use14345"/><use id="use14553" width="100%" height="100%" x="0" y="0" transform="translate(-31.749998)" xlink:href="#use14347"/><use id="use14555" width="100%" height="100%" x="0" y="0" transform="translate(31.749998)" xlink:href="#use1411"/><use id="use14557" width="100%" height="100%" x="0" y="0" transform="translate(31.749998)" xlink:href="#g2459"/><use id="use14559" width="100%" height="100%" x="0" y="0" transform="translate(31.749998)" xlink:href="#use2461"/><use id="use14561" width="100%" height="100%" x="0" y="0" transform="translate(31.749998)" xlink:href="#use2463"/><use id="use14563" width="100%" height="100%" x="0" y="0" transform="translate(31.749998)" xlink:href="#use14343"/><use id="use14565" width="100%" height="100%" x="0" y="0" transform="translate(31.749998)" xlink:href="#use14345"/><use id="use14567" width="100%" height="100%" x="0" y="0" transform="translate(31.749998)" xlink:href="#use14347"/><use id="use56613" width="100%" height="100%" x="0" y="0" transform="translate(99.483333)" xlink:href="#g1049"/><use id="use56615" width="100%" height="100%" x="0" y="0" transform="translate(99.483333)" xlink:href="#path1051"/><use id="use56617" width="100%" height="100%" x="0" y="0" transform="translate(99.483333)" xlink:href="#use1411"/><use id="use56619" width="100%" height="100%" x="0" y="0" transform="translate(99.483333)" xlink:href="#path1467"/><use id="use56621" width="100%" height="100%" x="0" y="0" transform="translate(99.483333)" xlink:href="#path1775"/><use id="use56623" width="100%" height="100%" x="0" y="0" transform="translate(99.483333)" xlink:href="#g2459"/><use id="use56625" width="100%" height="100%" x="0" y="0" transform="translate(99.483333)" xlink:href="#use2461"/><use id="use56627" width="100%" height="100%" x="0" y="0" transform="translate(99.483333)" xlink:href="#use2463"/><use id="use56629" width="100%" height="100%" x="0" y="0" transform="translate(99.483333)" xlink:href="#use14343"/><use id="use56631" width="100%" height="100%" x="0" y="0" transform="translate(99.483333)" xlink:href="#use14345"/><use id="use56633" width="100%" height="100%" x="0" y="0" transform="translate(99.483333)" xlink:href="#use14347"/><use id="use56635" width="100%" height="100%" x="0" y="0" transform="translate(99.483333)" xlink:href="#use14541"/><use id="use56637" width="100%" height="100%" x="0" y="0" transform="translate(99.483333)" xlink:href="#use14543"/><use id="use56639" width="100%" height="100%" x="0" y="0" transform="translate(99.483333)" xlink:href="#use14545"/><use id="use56641" width="100%" height="100%" x="0" y="0" transform="translate(99.483333)" xlink:href="#use14547"/><use id="use56643" width="100%" height="100%" x="0" y="0" transform="translate(99.483333)" xlink:href="#use14549"/><use id="use56645" width="100%" height="100%" x="0" y="0" transform="translate(99.483333)" xlink:href="#use14551"/><use id="use56647" width="100%" height="100%" x="0" y="0" transform="translate(99.483333)" xlink:href="#use14553"/><use id="use56649" width="100%" height="100%" x="0" y="0" transform="translate(99.483333)" xlink:href="#use14555"/><use id="use56651" width="100%" height="100%" x="0" y="0" transform="translate(99.483333)" xlink:href="#use14557"/><use id="use56653" width="100%" height="100%" x="0" y="0" transform="translate(99.483333)" xlink:href="#use14559"/><use id="use56655" width="100%" height="100%" x="0" y="0" transform="translate(99.483333)" xlink:href="#use14561"/><use id="use56657" width="100%" height="100%" x="0" y="0" transform="translate(99.483333)" xlink:href="#use14563"/><use id="use56659" width="100%" height="100%" x="0" y="0" transform="translate(99.483333)" xlink:href="#use14565"/><use id="use56661" width="100%" height="100%" x="0" y="0" transform="translate(99.483333)" xlink:href="#use14567"/><path style="opacity:1;fill:#fff;fill-opacity:1;fill-rule:nonzero;stroke:none;stroke-width:.23625;stroke-miterlimit:4;stroke-dasharray:none;stroke-opacity:1" id="path1049" d="m 10.655,380.0164 v -21.375 H 23.99875 37.3425 v 21.375 21.375 H 23.99875 10.655 Z" transform="matrix(0.26458333,0,0,0.26458333,0,189.05003)"/><path style="opacity:1;fill:#fff;fill-opacity:1;fill-rule:nonzero;stroke:none;stroke-width:.23625;stroke-miterlimit:4;stroke-dasharray:none;stroke-opacity:1" id="path1052" d="m 8.6550004,380.0164 v -23.375 H 23.99875 39.3425 v 23.375 23.375 H 23.99875 8.6550004 Z m 29.9999996,0 v -22.625 H 23.99875 9.3425004 v 22.58333 c 0,12.42084 0.01875,22.60209 0.041667,22.625 0.022917,0.0229 6.6182286,0.0417 14.6562496,0.0417 H 38.655 Z" transform="matrix(0.26458333,0,0,0.26458333,0,189.05003)"/><path style="opacity:1;fill:#fff;fill-opacity:1;fill-rule:nonzero;stroke:none;stroke-width:.23625;stroke-miterlimit:4;stroke-dasharray:none;stroke-opacity:1" id="path1054" d="m 46.654999,380.0164 v -21.375 h 13.34375 13.34375 v 21.375 21.375 h -13.34375 -13.34375 z" transform="matrix(0.26458333,0,0,0.26458333,0,189.05003)"/><path style="opacity:1;fill:#fff;fill-opacity:1;fill-rule:nonzero;stroke:none;stroke-width:.23625;stroke-miterlimit:4;stroke-dasharray:none;stroke-opacity:1" id="path1057" d="m 44.655,380.0164 v -23.375 h 15.343749 15.34375 v 23.375 23.375 H 59.998749 44.655 Z m 29.999999,0 v -22.625 H 59.998749 45.3425 v 22.58333 c 0,12.42084 0.01875,22.60209 0.04167,22.625 0.02292,0.0229 6.618229,0.0417 14.65625,0.0417 h 14.614583 z" transform="matrix(0.26458333,0,0,0.26458333,0,189.05003)"/><path style="opacity:1;fill:#fff;fill-opacity:1;fill-rule:nonzero;stroke:none;stroke-width:.23625;stroke-miterlimit:4;stroke-dasharray:none;stroke-opacity:1" id="path1059" d="m 82.6175,380.0164 v -21.375 H 95.992499 109.3675 v 21.375 21.375 H 95.992499 82.6175 Z" transform="matrix(0.26458333,0,0,0.26458333,0,189.05003)"/><path style="opacity:1;fill:#fff;fill-opacity:1;fill-rule:nonzero;stroke:none;stroke-width:.23625;stroke-miterlimit:4;stroke-dasharray:none;stroke-opacity:1" id="path1061" d="m 80.6175,380.0164 v -23.375 H 95.992499 111.3675 v 23.375 23.375 H 95.992499 80.6175 Z m 30,0 v -22.625 H 95.992499 81.3675 v 22.625 22.625 H 95.992499 110.6175 Z" transform="matrix(0.26458333,0,0,0.26458333,0,189.05003)"/><path style="opacity:1;fill:#fff;fill-opacity:1;fill-rule:nonzero;stroke:none;stroke-width:.23625;stroke-miterlimit:4;stroke-dasharray:none;stroke-opacity:1" id="path1063" d="m 130.63,380.0164 v -21.375 h 13.375 13.375 v 21.375 21.375 H 144.005 130.63 Z" transform="matrix(0.26458333,0,0,0.26458333,0,189.05003)"/><path style="opacity:1;fill:#fff;fill-opacity:1;fill-rule:nonzero;stroke:none;stroke-width:.23625;stroke-miterlimit:4;stroke-dasharray:none;stroke-opacity:1" id="path1065" d="m 128.63,380.0164 v -23.375 h 15.375 15.375 v 23.375 23.375 H 144.005 128.63 Z m 30,0 v -22.625 H 144.005 129.38 v 22.625 22.625 h 14.625 14.625 z" transform="matrix(0.26458333,0,0,0.26458333,0,189.05003)"/><path style="opacity:1;fill:#fff;fill-opacity:1;fill-rule:nonzero;stroke:none;stroke-width:.23625;stroke-miterlimit:4;stroke-dasharray:none;stroke-opacity:1" id="path1067" d="m 164.63,380.0164 v -23.375 h 15.375 15.375 v 23.375 23.375 H 180.005 164.63 Z m 30,0 v -22.625 H 180.005 165.38 v 22.625 22.625 h 14.625 14.625 z" transform="matrix(0.26458333,0,0,0.26458333,0,189.05003)"/><path style="opacity:1;fill:#fff;fill-opacity:1;fill-rule:nonzero;stroke:none;stroke-width:.23625;stroke-miterlimit:4;stroke-dasharray:none;stroke-opacity:1" id="path1069" d="m 166.63,380.0164 v -21.375 h 13.375 13.375 v 21.375 21.375 H 180.005 166.63 Z" transform="matrix(0.26458333,0,0,0.26458333,0,189.05003)"/><path style="opacity:1;fill:#fff;fill-opacity:1;fill-rule:nonzero;stroke:none;stroke-width:.23625;stroke-miterlimit:4;stroke-dasharray:none;stroke-opacity:1" id="path1071" d="m 202.6175,380.0164 v -21.375 h 13.375 13.375 v 21.375 21.375 h -13.375 -13.375 z" transform="matrix(0.26458333,0,0,0.26458333,0,189.05003)"/><path style="opacity:1;fill:#fff;fill-opacity:1;fill-rule:nonzero;stroke:none;stroke-width:.23625;stroke-miterlimit:4;stroke-dasharray:none;stroke-opacity:1" id="path1073" d="m 200.6175,380.0164 v -23.375 h 15.375 15.375 v 23.375 23.375 h -15.375 -15.375 z m 30,0 v -22.625 h -14.625 -14.625 v 22.625 22.625 h 14.625 14.625 z" transform="matrix(0.26458333,0,0,0.26458333,0,189.05003)"/><path style="opacity:1;fill:#fff;fill-opacity:1;fill-rule:nonzero;stroke:none;stroke-width:.23625;stroke-miterlimit:4;stroke-dasharray:none;stroke-opacity:1" id="path1075" d="m 250.6325,380.0164 v -21.375 h 13.375 13.375 v 21.375 21.375 h -13.375 -13.375 z" transform="matrix(0.26458333,0,0,0.26458333,0,189.05003)"/><path style="opacity:1;fill:#fff;fill-opacity:1;fill-rule:nonzero;stroke:none;stroke-width:.23625;stroke-miterlimit:4;stroke-dasharray:none;stroke-opacity:1" id="path1077" d="m 248.6325,380.0164 v -23.375 h 15.375 15.375 v 23.375 23.375 h -15.375 -15.375 z m 30,0 v -22.625 h -14.625 -14.625 v 22.625 22.625 h 14.625 14.625 z" transform="matrix(0.26458333,0,0,0.26458333,0,189.05003)"/><path style="opacity:1;fill:#fff;fill-opacity:1;fill-rule:nonzero;stroke:none;stroke-width:.23625;stroke-miterlimit:4;stroke-dasharray:none;stroke-opacity:1" id="path1079" d="m 284.6325,380.0164 v -23.375 h 15.375 15.375 v 23.375 23.375 h -15.375 -15.375 z m 30,0 v -22.625 h -14.625 -14.625 v 22.625 22.625 h 14.625 14.625 z" transform="matrix(0.26458333,0,0,0.26458333,0,189.05003)"/><path style="opacity:1;fill:#fff;fill-opacity:1;fill-rule:nonzero;stroke:none;stroke-width:.23625;stroke-miterlimit:4;stroke-dasharray:none;stroke-opacity:1" id="path1081" d="m 286.6325,380.0164 v -21.375 h 13.375 13.375 v 21.375 21.375 h -13.375 -13.375 z" transform="matrix(0.26458333,0,0,0.26458333,0,189.05003)"/><path style="opacity:1;fill:#fff;fill-opacity:1;fill-rule:nonzero;stroke:none;stroke-width:.23625;stroke-miterlimit:4;stroke-dasharray:none;stroke-opacity:1" id="path1083" d="m 322.6325,380.0164 v -21.375 h 13.375 13.375 v 21.375 21.375 h -13.375 -13.375 z" transform="matrix(0.26458333,0,0,0.26458333,0,189.05003)"/><path style="opacity:1;fill:#fff;fill-opacity:1;fill-rule:nonzero;stroke:none;stroke-width:.23625;stroke-miterlimit:4;stroke-dasharray:none;stroke-opacity:1" id="path1085" d="m 320.6325,380.0164 v -23.375 h 15.375 15.375 v 23.375 23.375 h -15.375 -15.375 z m 30,0 v -22.625 h -14.625 -14.625 v 22.625 22.625 h 14.625 14.625 z" transform="matrix(0.26458333,0,0,0.26458333,0,189.05003)"/><path style="opacity:1;fill:#fff;fill-opacity:1;fill-rule:nonzero;stroke:none;stroke-width:.23625;stroke-miterlimit:4;stroke-dasharray:none;stroke-opacity:1" id="path1087" d="m 384.6,380.0164 v -23.375 h 15.375 15.375 v 23.375 23.375 H 399.975 384.6 Z m 30,0 v -22.625 H 399.975 385.35 v 22.625 22.625 h 14.625 14.625 z" transform="matrix(0.26458333,0,0,0.26458333,0,189.05003)"/><path style="opacity:1;fill:#fff;fill-opacity:1;fill-rule:nonzero;stroke:none;stroke-width:.23625;stroke-miterlimit:4;stroke-dasharray:none;stroke-opacity:1" id="path1089" d="m 386.6,380.0164 v -21.375 h 13.375 13.375 v 21.375 21.375 H 399.975 386.6 Z" transform="matrix(0.26458333,0,0,0.26458333,0,189.05003)"/><path style="opacity:1;fill:#fff;fill-opacity:1;fill-rule:nonzero;stroke:none;stroke-width:.23625;stroke-miterlimit:4;stroke-dasharray:none;stroke-opacity:1" id="path1091" d="m 420.6,380.0164 v -23.375 h 15.375 15.375 v 23.375 23.375 H 435.975 420.6 Z m 30,0 v -22.625 H 435.975 421.35 v 22.625 22.625 h 14.625 14.625 z" transform="matrix(0.26458333,0,0,0.26458333,0,189.05003)"/><path style="opacity:1;fill:#fff;fill-opacity:1;fill-rule:nonzero;stroke:none;stroke-width:.23625;stroke-miterlimit:4;stroke-dasharray:none;stroke-opacity:1" id="path1093" d="m 422.6,380.0164 v -21.375 h 13.375 13.375 v 21.375 21.375 H 435.975 422.6 Z" transform="matrix(0.26458333,0,0,0.26458333,0,189.05003)"/><path style="opacity:1;fill:#fff;fill-opacity:1;fill-rule:nonzero;stroke:none;stroke-width:.23625;stroke-miterlimit:4;stroke-dasharray:none;stroke-opacity:1" id="path1095" d="m 458.62,380.0164 v -21.375 h 13.375 13.375 v 21.375 21.375 H 471.995 458.62 Z" transform="matrix(0.26458333,0,0,0.26458333,0,189.05003)"/><path style="opacity:1;fill:#fff;fill-opacity:1;fill-rule:nonzero;stroke:none;stroke-width:.23625;stroke-miterlimit:4;stroke-dasharray:none;stroke-opacity:1" id="path1097" d="m 456.62,380.0164 v -23.375 h 15.375 15.375 v 23.375 23.375 H 471.995 456.62 Z m 30,0 v -22.625 H 471.995 457.37 v 22.625 22.625 h 14.625 14.625 z" transform="matrix(0.26458333,0,0,0.26458333,0,189.05003)"/><path style="opacity:1;fill:#fff;fill-opacity:1;fill-rule:nonzero;stroke:none;stroke-width:.23625;stroke-miterlimit:4;stroke-dasharray:none;stroke-opacity:1" id="path1099" d="m 506.6075,380.0164 v -21.375 h 13.375 13.375 v 21.375 21.375 h -13.375 -13.375 z" transform="matrix(0.26458333,0,0,0.26458333,0,189.05003)"/><path style="opacity:1;fill:#fff;fill-opacity:1;fill-rule:nonzero;stroke:none;stroke-width:.23625;stroke-miterlimit:4;stroke-dasharray:none;stroke-opacity:1" id="path1101" d="m 504.6075,380.0164 v -23.375 h 15.375 15.375 v 23.375 23.375 h -15.375 -15.375 z m 30,0 v -22.625 h -14.625 -14.625 v 22.625 22.625 h 14.625 14.625 z" transform="matrix(0.26458333,0,0,0.26458333,0,189.05003)"/><path style="opacity:1;fill:#fff;fill-opacity:1;fill-rule:nonzero;stroke:none;stroke-width:.23625;stroke-miterlimit:4;stroke-dasharray:none;stroke-opacity:1" id="path1103" d="m 540.6075,380.0164 v -23.375 h 15.375 15.375 v 23.375 23.375 h -15.375 -15.375 z m 30,0 v -22.625 h -14.625 -14.625 v 22.625 22.625 h 14.625 14.625 z" transform="matrix(0.26458333,0,0,0.26458333,0,189.05003)"/><path style="opacity:1;fill:#fff;fill-opacity:1;fill-rule:nonzero;stroke:none;stroke-width:.23625;stroke-miterlimit:4;stroke-dasharray:none;stroke-opacity:1" id="path1105" d="m 542.6075,380.0164 v -21.375 h 13.375 13.375 v 21.375 21.375 h -13.375 -13.375 z" transform="matrix(0.26458333,0,0,0.26458333,0,189.05003)"/><path style="opacity:1;fill:#fff;fill-opacity:1;fill-rule:nonzero;stroke:none;stroke-width:.23625;stroke-miterlimit:4;stroke-dasharray:none;stroke-opacity:1" id="path1107" d="m 578.6475,380.0164 v -21.375 h 13.375 13.375 v 21.375 21.375 h -13.375 -13.375 z" transform="matrix(0.26458333,0,0,0.26458333,0,189.05003)"/><path style="opacity:1;fill:#fff;fill-opacity:1;fill-rule:nonzero;stroke:none;stroke-width:.23625;stroke-miterlimit:4;stroke-dasharray:none;stroke-opacity:1" id="path1109" d="m 576.6475,380.0164 v -23.375 h 15.375 15.375 v 23.375 23.375 h -15.375 -15.375 z m 30,0 v -22.625 h -14.625 -14.625 v 22.625 22.625 h 14.625 14.625 z" transform="matrix(0.26458333,0,0,0.26458333,0,189.05003)"/><path style="opacity:1;fill:#fff;fill-opacity:1;fill-rule:nonzero;stroke:none;stroke-width:.23625;stroke-miterlimit:4;stroke-dasharray:none;stroke-opacity:1" id="path1111" d="m 626.625,380.0164 v -21.375 H 640 653.375 v 21.375 21.375 H 640 626.625 Z" transform="matrix(0.26458333,0,0,0.26458333,0,189.05003)"/><path style="opacity:1;fill:#fff;fill-opacity:1;fill-rule:nonzero;stroke:none;stroke-width:.23625;stroke-miterlimit:4;stroke-dasharray:none;stroke-opacity:1" id="path1113" d="m 624.625,380.0164 v -23.375 H 640 655.375 v 23.375 23.375 H 640 624.625 Z m 30,0 v -22.625 H 640 625.375 v 22.625 22.625 H 640 654.625 Z" transform="matrix(0.26458333,0,0,0.26458333,0,189.05003)"/><path style="opacity:1;fill:#fff;fill-opacity:1;fill-rule:nonzero;stroke:none;stroke-width:.23625;stroke-miterlimit:4;stroke-dasharray:none;stroke-opacity:1" id="path1115" d="m 662.625,380.0164 v -21.375 H 676 689.375 v 21.375 21.375 H 676 662.625 Z" transform="matrix(0.26458333,0,0,0.26458333,0,189.05003)"/><path style="opacity:1;fill:#fff;fill-opacity:1;fill-rule:nonzero;stroke:none;stroke-width:.23625;stroke-miterlimit:4;stroke-dasharray:none;stroke-opacity:1" id="path1117" d="m 660.625,380.0164 v -23.375 H 676 691.375 v 23.375 23.375 H 676 660.625 Z m 30,0 v -22.625 H 676 661.375 v 22.625 22.625 H 676 690.625 Z" transform="matrix(0.26458333,0,0,0.26458333,0,189.05003)"/><path style="opacity:1;fill:#fff;fill-opacity:1;fill-rule:nonzero;stroke:none;stroke-width:.23625;stroke-miterlimit:4;stroke-dasharray:none;stroke-opacity:1" id="path1119" d="m 698.66,380.0164 v -21.375 h 13.34375 13.34375 v 21.375 21.375 H 712.00375 698.66 Z" transform="matrix(0.26458333,0,0,0.26458333,0,189.05003)"/><path style="opacity:1;fill:#fff;fill-opacity:1;fill-rule:nonzero;stroke:none;stroke-width:.23625;stroke-miterlimit:4;stroke-dasharray:none;stroke-opacity:1" id="path1121" d="m 696.66,380.0164 v -23.375 h 15.34375 15.34375 v 23.375 23.375 H 712.00375 696.66 Z m 29.96875,0 v -22.59375 l -14.64062,-0.0157 -14.64063,-0.0158 v 22.62526 22.62526 l 14.64063,-0.0158 14.64062,-0.0158 z" transform="matrix(0.26458333,0,0,0.26458333,0,189.05003)"/></g></svg>