<?xml version="1.0" encoding="UTF-8" standalone="no"?>
<!-- Created with Inkscape (http://www.inkscape.org/) -->

<svg
   xmlns:dc="http://purl.org/dc/elements/1.1/"
   xmlns:cc="http://creativecommons.org/ns#"
   xmlns:rdf="http://www.w3.org/1999/02/22-rdf-syntax-ns#"
   xmlns:svg="http://www.w3.org/2000/svg"
   xmlns="http://www.w3.org/2000/svg"
   xmlns:xlink="http://www.w3.org/1999/xlink"
   xmlns:sodipodi="http://sodipodi.sourceforge.net/DTD/sodipodi-0.dtd"
   xmlns:inkscape="http://www.inkscape.org/namespaces/inkscape"
   width="732"
   height="408"
   viewBox="0 0 193.67502 107.94999"
   version="1.1"
   id="svg8"
   inkscape:version="0.92.3 (2405546, 2018-03-11)"
   sodipodi:docname="tree.svg">
  <defs
     id="defs2">
    <marker
       inkscape:isstock="true"
       style="overflow:visible"
       id="marker56533"
       refX="0"
       refY="0"
       orient="auto"
       inkscape:stockid="Arrow1Mend">
      <path
         transform="matrix(-0.4,0,0,-0.4,-4,0)"
         style="fill:#000000;fill-opacity:1;fill-rule:evenodd;stroke:#000000;stroke-width:1.00000003pt;stroke-opacity:1"
         d="M 0,0 5,-5 -12.5,0 5,5 Z"
         id="path56531"
         inkscape:connector-curvature="0" />
    </marker>
    <marker
       inkscape:stockid="Arrow1Mend"
       orient="auto"
       refY="0"
       refX="0"
       id="marker53751"
       style="overflow:visible"
       inkscape:isstock="true">
      <path
         inkscape:connector-curvature="0"
         id="path53749"
         d="M 0,0 5,-5 -12.5,0 5,5 Z"
         style="fill:#000000;fill-opacity:1;fill-rule:evenodd;stroke:#000000;stroke-width:1.00000003pt;stroke-opacity:1"
         transform="matrix(-0.4,0,0,-0.4,-4,0)" />
    </marker>
    <marker
       inkscape:isstock="true"
       style="overflow:visible"
       id="marker37787"
       refX="0"
       refY="0"
       orient="auto"
       inkscape:stockid="Arrow1Mend">
      <path
         inkscape:connector-curvature="0"
         transform="matrix(-0.4,0,0,-0.4,-4,0)"
         style="fill:#000000;fill-opacity:1;fill-rule:evenodd;stroke:#000000;stroke-width:1.00000003pt;stroke-opacity:1"
         d="M 0,0 5,-5 -12.5,0 5,5 Z"
         id="path37785" />
    </marker>
    <marker
       inkscape:stockid="Arrow1Mend"
       orient="auto"
       refY="0"
       refX="0"
       id="marker1643"
       style="overflow:visible"
       inkscape:isstock="true">
      <path
         id="path1641"
         d="M 0,0 5,-5 -12.5,0 5,5 Z"
         style="fill:#000000;fill-opacity:1;fill-rule:evenodd;stroke:#000000;stroke-width:1.00000003pt;stroke-opacity:1"
         transform="matrix(-0.4,0,0,-0.4,-4,0)"
         inkscape:connector-curvature="0" />
    </marker>
    <marker
       inkscape:stockid="Arrow1Mend"
       orient="auto"
       refY="0"
       refX="0"
       id="marker3997"
       style="overflow:visible"
       inkscape:isstock="true">
      <path
         id="path3995"
         d="M 0,0 5,-5 -12.5,0 5,5 Z"
         style="fill:#000000;fill-opacity:1;fill-rule:evenodd;stroke:#000000;stroke-width:1.00000003pt;stroke-opacity:1"
         transform="matrix(-0.4,0,0,-0.4,-4,0)"
         inkscape:connector-curvature="0" />
    </marker>
    <marker
       inkscape:isstock="true"
       style="overflow:visible"
       id="marker2353"
       refX="0"
       refY="0"
       orient="auto"
       inkscape:stockid="Arrow1Mend"
       inkscape:collect="always">
      <path
         transform="matrix(-0.4,0,0,-0.4,-4,0)"
         style="fill:#000000;fill-opacity:1;fill-rule:evenodd;stroke:#000000;stroke-width:1.00000003pt;stroke-opacity:1"
         d="M 0,0 5,-5 -12.5,0 5,5 Z"
         id="path2351"
         inkscape:connector-curvature="0" />
    </marker>
    <marker
       inkscape:stockid="Arrow1Mend"
       orient="auto"
       refY="0"
       refX="0"
       id="marker25461"
       style="overflow:visible"
       inkscape:isstock="true">
      <path
         id="path25459"
         d="M 0,0 5,-5 -12.5,0 5,5 Z"
         style="fill:#000000;fill-opacity:1;fill-rule:evenodd;stroke:#000000;stroke-width:1.00000003pt;stroke-opacity:1"
         transform="matrix(-0.4,0,0,-0.4,-4,0)"
         inkscape:connector-curvature="0" />
    </marker>
    <marker
       inkscape:stockid="Arrow1Mend"
       orient="auto"
       refY="0"
       refX="0"
       id="marker2311"
       style="overflow:visible"
       inkscape:isstock="true">
      <path
         id="path2309"
         d="M 0,0 5,-5 -12.5,0 5,5 Z"
         style="fill:#000000;fill-opacity:1;fill-rule:evenodd;stroke:#000000;stroke-width:1.00000003pt;stroke-opacity:1"
         transform="matrix(-0.4,0,0,-0.4,-4,0)"
         inkscape:connector-curvature="0" />
    </marker>
    <marker
       inkscape:stockid="Arrow1Mend"
       orient="auto"
       refY="0"
       refX="0"
       id="marker2149"
       style="overflow:visible"
       inkscape:isstock="true">
      <path
         id="path2147"
         d="M 0,0 5,-5 -12.5,0 5,5 Z"
         style="fill:#000000;fill-opacity:1;fill-rule:evenodd;stroke:#000000;stroke-width:1.00000003pt;stroke-opacity:1"
         transform="matrix(-0.4,0,0,-0.4,-4,0)"
         inkscape:connector-curvature="0" />
    </marker>
    <marker
       inkscape:isstock="true"
       style="overflow:visible"
       id="marker1999"
       refX="0"
       refY="0"
       orient="auto"
       inkscape:stockid="Arrow1Mend">
      <path
         transform="matrix(-0.4,0,0,-0.4,-4,0)"
         style="fill:#000000;fill-opacity:1;fill-rule:evenodd;stroke:#000000;stroke-width:1.00000003pt;stroke-opacity:1"
         d="M 0,0 5,-5 -12.5,0 5,5 Z"
         id="path1997"
         inkscape:connector-curvature="0" />
    </marker>
    <marker
       inkscape:stockid="Arrow2Lend"
       orient="auto"
       refY="0"
       refX="0"
       id="Arrow2Lend"
       style="overflow:visible"
       inkscape:isstock="true">
      <path
         id="path1074"
         style="fill:#000000;fill-opacity:1;fill-rule:evenodd;stroke:#000000;stroke-width:0.625;stroke-linejoin:round;stroke-opacity:1"
         d="M 8.7185878,4.0337352 -2.2072895,0.01601326 8.7185884,-4.0017078 c -1.7454984,2.3720609 -1.7354408,5.6174519 -6e-7,8.035443 z"
         transform="matrix(-1.1,0,0,-1.1,-1.1,0)"
         inkscape:connector-curvature="0" />
    </marker>
    <marker
       inkscape:stockid="Arrow1Lend"
       orient="auto"
       refY="0"
       refX="0"
       id="Arrow1Lend"
       style="overflow:visible"
       inkscape:isstock="true">
      <path
         id="path1056"
         d="M 0,0 5,-5 -12.5,0 5,5 Z"
         style="fill:#000000;fill-opacity:1;fill-rule:evenodd;stroke:#000000;stroke-width:1.00000003pt;stroke-opacity:1"
         transform="matrix(-0.8,0,0,-0.8,-10,0)"
         inkscape:connector-curvature="0" />
    </marker>
  </defs>
  <sodipodi:namedview
     id="base"
     pagecolor="#ffffff"
     bordercolor="#666666"
     borderopacity="1.0"
     inkscape:pageopacity="0.0"
     inkscape:pageshadow="2"
     inkscape:zoom="1.4142136"
     inkscape:cx="379.80632"
     inkscape:cy="231.24197"
     inkscape:document-units="px"
     inkscape:current-layer="layer1"
     showgrid="true"
     inkscape:snap-global="true"
     inkscape:window-width="1920"
     inkscape:window-height="1015"
     inkscape:window-x="0"
     inkscape:window-y="0"
     inkscape:window-maximized="1"
     inkscape:snap-object-midpoints="true"
     inkscape:snap-others="true"
     inkscape:object-nodes="true"
     inkscape:snap-nodes="true"
     inkscape:snap-smooth-nodes="true"
     inkscape:snap-text-baseline="true"
     units="px"
     inkscape:snap-bbox="false">
    <inkscape:grid
       type="xygrid"
       id="grid14"
       spacingx="1.0583333"
       spacingy="1.0583333"
       empspacing="4"
       visible="true"
       enabled="true" />
  </sodipodi:namedview>
  <metadata
     id="metadata5">
    <rdf:RDF>
      <cc:Work
         rdf:about="">
        <dc:format>image/svg+xml</dc:format>
        <dc:type
           rdf:resource="http://purl.org/dc/dcmitype/StillImage" />
        <dc:title></dc:title>
      </cc:Work>
    </rdf:RDF>
  </metadata>
  <g
     inkscape:label="paper"
     inkscape:groupmode="layer"
     id="layer1"
     style="display:inline"
     transform="translate(0,-189.05003)">
    <flowRoot
       xml:space="preserve"
       id="flowRoot25"
       style="font-style:normal;font-weight:normal;font-size:40px;line-height:1.25;font-family:sans-serif;letter-spacing:0px;word-spacing:0px;fill:#000000;fill-opacity:1;stroke:none"
       transform="scale(0.26458333)"><flowRegion
         id="flowRegion27"><rect
           id="rect29"
           width="16"
           height="80"
           x="368"
           y="146.51967" /></flowRegion><flowPara
         id="flowPara31" /></flowRoot>    <g
       id="g1049"
       transform="translate(22.224998,-47.625002)">
      <path
         sodipodi:nodetypes="ccccccc"
         inkscape:connector-curvature="0"
         id="path19"
         d="m 32.808329,280.0667 c 1.058333,0 2.116666,-1.05833 2.116666,-2.11666 0,-1.05834 -1.058333,-2.11667 -2.116666,-2.11667 H 20.10833 c 1.058334,0 2.116667,1.05833 2.116667,2.11667 0,1.05833 -1.058333,2.11666 -2.116667,2.11666 z"
         style="fill:#ffffff;stroke:#000000;stroke-width:0.3175;stroke-linecap:butt;stroke-linejoin:miter;stroke-miterlimit:4;stroke-dasharray:none;stroke-opacity:1" />
      <path
         sodipodi:nodetypes="ccccccccc"
         inkscape:connector-curvature="0"
         id="path16"
         d="m 15.874997,266.30837 c 1.058334,0 2.116667,1.05834 2.11667,2.11664 l -3e-6,9.52503 c 0,1.05833 1.058333,2.11666 2.116666,2.11666 h 12.699999 c -1.058334,0 -2.116667,-1.05833 -2.116667,-2.11666 l 8e-6,-9.52503 c -8e-6,-1.0583 -1.058341,-2.11664 -2.116673,-2.11667 z"
         style="fill:#ffffff;stroke:#000000;stroke-width:0.3175;stroke-linecap:butt;stroke-linejoin:miter;stroke-miterlimit:4;stroke-dasharray:none;stroke-opacity:1" />
      <path
         sodipodi:nodetypes="cccccc"
         inkscape:connector-curvature="0"
         id="path102"
         d="m 24.341663,277.95003 -1.058333,5.29167 1.058333,2.11667 1.058333,-1.05834 v -6.35 z"
         style="fill:#800000;stroke:#000000;stroke-width:0.26458332;stroke-linecap:butt;stroke-linejoin:miter;stroke-miterlimit:4;stroke-dasharray:none;stroke-opacity:1" />
      <path
         sodipodi:nodetypes="cccccc"
         inkscape:connector-curvature="0"
         id="path104"
         d="m 25.399996,277.95003 h 1.058334 l 1.058333,5.29167 -1.058333,2.11667 -1.058334,-1.05834 z"
         style="fill:#800000;stroke:#000000;stroke-width:0.26458332;stroke-linecap:butt;stroke-linejoin:miter;stroke-miterlimit:4;stroke-dasharray:none;stroke-opacity:1" />
      <path
         inkscape:transform-center-y="-0.63777596"
         inkscape:transform-center-x="-0.095051917"
         d="m 27.760187,278.85894 -0.10198,0.44702 -0.533634,-0.0447 -0.187229,0.41854 -0.514654,-0.14798 -0.265283,0.37396 -0.475896,-0.24553 -0.333143,0.31502 -0.418851,-0.33366 -0.388199,0.24398 -0.345709,-0.40896 -0.428337,0.16355 -0.259282,-0.46855 -0.452015,0.0768 -0.16289,-0.51013 -0.458323,-0.0128 -0.06024,-0.5321 -0.447017,-0.10198 0.04473,-0.53364 -0.418532,-0.18723 0.147974,-0.51465 -0.373963,-0.26528 0.245535,-0.4759 -0.315024,-0.33314 0.33366,-0.41885 -0.243978,-0.3882 0.408963,-0.34571 -0.163556,-0.42834 0.468549,-0.25928 -0.07685,-0.45202 0.510129,-0.16289 0.01281,-0.45832 0.532106,-0.0602 0.101979,-0.44701 0.533634,0.0447 0.187229,-0.41853 0.514654,0.14798 0.265283,-0.37397 0.475897,0.24554 0.333142,-0.31503 0.418851,0.33366 0.388199,-0.24397 0.345709,0.40896 0.428338,-0.16356 0.259281,0.46855 0.452016,-0.0768 0.16289,0.51013 0.458322,0.0128 0.06024,0.53211 0.447017,0.10198 -0.04473,0.53363 0.418532,0.18723 -0.147975,0.51466 0.373964,0.26528 -0.245536,0.4759 0.315024,0.33314 -0.33366,0.41885 0.243978,0.3882 -0.408963,0.34571 0.163556,0.42834 -0.468549,0.25928 0.07685,0.45201 -0.51013,0.16289 -0.01281,0.45833 z"
         inkscape:randomized="0"
         inkscape:rounded="0"
         inkscape:flatsided="false"
         sodipodi:arg2="0.99424258"
         sodipodi:arg1="0.90835061"
         sodipodi:r2="4.1422229"
         sodipodi:r1="3.8372068"
         sodipodi:cy="275.83334"
         sodipodi:cx="25.400124"
         sodipodi:sides="32"
         id="path95"
         style="fill:#ffff00;stroke:#000000;stroke-width:0.26458332;stroke-miterlimit:4;stroke-dasharray:none"
         sodipodi:type="star" />
      <ellipse
         id="path93"
         style="fill:#ffff00;stroke:#000000;stroke-width:0.26458332;stroke-miterlimit:4;stroke-dasharray:none"
         ry="3.1749761"
         rx="3.175127"
         cy="275.83334"
         cx="25.400124" />
      <ellipse
         cy="275.83334"
         cx="25.400124"
         id="path91"
         style="fill:#ffff00;stroke:#000000;stroke-width:0.26458332;stroke-miterlimit:4;stroke-dasharray:none"
         rx="2.1167939"
         ry="2.1166427" />
      <path
         sodipodi:nodetypes="ccccccc"
         inkscape:connector-curvature="0"
         id="path17"
         d="m 28.574995,266.30836 c -1.058333,0 -2.116666,1.05834 -2.116666,2.11667 0,1.05833 1.058333,2.11667 2.116666,2.11667 H 15.874997 c -1.058333,0 -2.116667,-1.05834 -2.116667,-2.11667 0,-1.05833 1.058334,-2.11667 2.116667,-2.11667 z"
         style="fill:#ffffff;stroke:#000000;stroke-width:0.3175;stroke-linecap:butt;stroke-linejoin:miter;stroke-miterlimit:4;stroke-dasharray:none;stroke-opacity:1" />
    </g>
    <path
       style="fill:none;stroke:#000000;stroke-width:0.5291667;stroke-linecap:butt;stroke-linejoin:miter;stroke-miterlimit:4;stroke-dasharray:none;stroke-opacity:1;marker-end:url(#marker37787)"
       d="m 47.624999,241.9667 v 6.35"
       id="path1051"
       inkscape:connector-curvature="0" />
    <use
       x="0"
       y="0"
       xlink:href="#g1049"
       id="use1411"
       transform="translate(0.30092225,34.027606)"
       width="100%"
       height="100%" />
    <path
       inkscape:connector-curvature="0"
       id="path1467"
       d="m 33.866667,241.9667 -4.233333,6.35"
       style="fill:none;stroke:#000000;stroke-width:0.5291667;stroke-linecap:butt;stroke-linejoin:miter;stroke-miterlimit:4;stroke-dasharray:none;stroke-opacity:1;marker-end:url(#marker53751)"
       sodipodi:nodetypes="cc" />
    <path
       inkscape:connector-curvature="0"
       id="path1775"
       d="m 61.38334,241.9667 4.233332,6.35"
       style="fill:none;stroke:#000000;stroke-width:0.5291667;stroke-linecap:butt;stroke-linejoin:miter;stroke-miterlimit:4;stroke-dasharray:none;stroke-opacity:1;marker-end:url(#marker56533)"
       sodipodi:nodetypes="cc" />
    <g
       id="g2459"
       transform="translate(21.166664,4.2333334)">
      <rect
         y="279.53754"
         x="22.754164"
         height="11.641658"
         width="7.4083338"
         id="rect2133"
         style="fill:none;fill-opacity:1;stroke:#000000;stroke-width:0.3175;stroke-miterlimit:4;stroke-dasharray:none;stroke-opacity:1" />
      <rect
         y="279.00836"
         x="22.224997"
         height="12.699995"
         width="8.4666662"
         id="rect2135"
         style="fill:none;fill-opacity:1;stroke:#000000;stroke-width:0.3175;stroke-miterlimit:4;stroke-dasharray:none;stroke-opacity:1"
         ry="0" />
    </g>
    <use
       x="0"
       y="0"
       xlink:href="#g2459"
       id="use2461"
       transform="translate(-9.5249993,9.7366666e-6)"
       width="100%"
       height="100%" />
    <use
       x="0"
       y="0"
       xlink:href="#g2459"
       id="use2463"
       transform="translate(9.5250003,9.7366666e-6)"
       width="100%"
       height="100%" />
    <use
       x="0"
       y="0"
       xlink:href="#g1049"
       id="use5499"
       width="100%"
       height="100%"
       transform="translate(49.741658,-28.575002)" />
    <path
       inkscape:connector-curvature="0"
       id="path2269"
       d="m 80.433333,208.10003 -15.96242,6.29081"
       style="fill:none;stroke:#000000;stroke-width:0.5291667;stroke-linecap:butt;stroke-linejoin:miter;stroke-miterlimit:4;stroke-dasharray:none;stroke-opacity:1;marker-end:url(#marker2353)"
       sodipodi:nodetypes="cc" />
    <path
       sodipodi:nodetypes="cc"
       style="fill:none;stroke:#000000;stroke-width:0.5291667;stroke-linecap:butt;stroke-linejoin:miter;stroke-miterlimit:4;stroke-dasharray:none;stroke-opacity:1;marker-end:url(#marker3997)"
       d="m 114.38742,208.04084 16.93335,6.35"
       id="path3993"
       inkscape:connector-curvature="0" />
    <use
       x="0"
       y="0"
       xlink:href="#path1051"
       id="use14343"
       transform="translate(0,31.749998)"
       width="100%"
       height="100%" />
    <use
       x="0"
       y="0"
       xlink:href="#path1467"
       id="use14345"
       transform="translate(8.4666659,31.749998)"
       width="100%"
       height="100%" />
    <use
       x="0"
       y="0"
       xlink:href="#path1775"
       id="use14347"
       transform="translate(-8.4666703,31.749998)"
       width="100%"
       height="100%" />
    <use
       x="0"
       y="0"
       xlink:href="#use1411"
       id="use14541"
       width="100%"
       height="100%"
       transform="translate(-31.749998)" />
    <use
       x="0"
       y="0"
       xlink:href="#g2459"
       id="use14543"
       width="100%"
       height="100%"
       transform="translate(-31.749998)" />
    <use
       x="0"
       y="0"
       xlink:href="#use2461"
       id="use14545"
       width="100%"
       height="100%"
       transform="translate(-31.749998)" />
    <use
       x="0"
       y="0"
       xlink:href="#use2463"
       id="use14547"
       width="100%"
       height="100%"
       transform="translate(-31.749998)" />
    <use
       x="0"
       y="0"
       xlink:href="#use14343"
       id="use14549"
       width="100%"
       height="100%"
       transform="translate(-31.749998)" />
    <use
       x="0"
       y="0"
       xlink:href="#use14345"
       id="use14551"
       width="100%"
       height="100%"
       transform="translate(-31.749998)" />
    <use
       x="0"
       y="0"
       xlink:href="#use14347"
       id="use14553"
       width="100%"
       height="100%"
       transform="translate(-31.749998)" />
    <use
       x="0"
       y="0"
       xlink:href="#use1411"
       id="use14555"
       transform="translate(31.749998)"
       width="100%"
       height="100%" />
    <use
       x="0"
       y="0"
       xlink:href="#g2459"
       id="use14557"
       transform="translate(31.749998)"
       width="100%"
       height="100%" />
    <use
       x="0"
       y="0"
       xlink:href="#use2461"
       id="use14559"
       transform="translate(31.749998)"
       width="100%"
       height="100%" />
    <use
       x="0"
       y="0"
       xlink:href="#use2463"
       id="use14561"
       transform="translate(31.749998)"
       width="100%"
       height="100%" />
    <use
       x="0"
       y="0"
       xlink:href="#use14343"
       id="use14563"
       transform="translate(31.749998)"
       width="100%"
       height="100%" />
    <use
       x="0"
       y="0"
       xlink:href="#use14345"
       id="use14565"
       transform="translate(31.749998)"
       width="100%"
       height="100%" />
    <use
       x="0"
       y="0"
       xlink:href="#use14347"
       id="use14567"
       transform="translate(31.749998)"
       width="100%"
       height="100%" />
    <use
       x="0"
       y="0"
       xlink:href="#g1049"
       id="use56613"
       transform="translate(99.483333)"
       width="100%"
       height="100%" />
    <use
       x="0"
       y="0"
       xlink:href="#path1051"
       id="use56615"
       transform="translate(99.483333)"
       width="100%"
       height="100%" />
    <use
       x="0"
       y="0"
       xlink:href="#use1411"
       id="use56617"
       transform="translate(99.483333)"
       width="100%"
       height="100%" />
    <use
       x="0"
       y="0"
       xlink:href="#path1467"
       id="use56619"
       transform="translate(99.483333)"
       width="100%"
       height="100%" />
    <use
       x="0"
       y="0"
       xlink:href="#path1775"
       id="use56621"
       transform="translate(99.483333)"
       width="100%"
       height="100%" />
    <use
       x="0"
       y="0"
       xlink:href="#g2459"
       id="use56623"
       transform="translate(99.483333)"
       width="100%"
       height="100%" />
    <use
       x="0"
       y="0"
       xlink:href="#use2461"
       id="use56625"
       transform="translate(99.483333)"
       width="100%"
       height="100%" />
    <use
       x="0"
       y="0"
       xlink:href="#use2463"
       id="use56627"
       transform="translate(99.483333)"
       width="100%"
       height="100%" />
    <use
       x="0"
       y="0"
       xlink:href="#use14343"
       id="use56629"
       transform="translate(99.483333)"
       width="100%"
       height="100%" />
    <use
       x="0"
       y="0"
       xlink:href="#use14345"
       id="use56631"
       transform="translate(99.483333)"
       width="100%"
       height="100%" />
    <use
       x="0"
       y="0"
       xlink:href="#use14347"
       id="use56633"
       transform="translate(99.483333)"
       width="100%"
       height="100%" />
    <use
       x="0"
       y="0"
       xlink:href="#use14541"
       id="use56635"
       transform="translate(99.483333)"
       width="100%"
       height="100%" />
    <use
       x="0"
       y="0"
       xlink:href="#use14543"
       id="use56637"
       transform="translate(99.483333)"
       width="100%"
       height="100%" />
    <use
       x="0"
       y="0"
       xlink:href="#use14545"
       id="use56639"
       transform="translate(99.483333)"
       width="100%"
       height="100%" />
    <use
       x="0"
       y="0"
       xlink:href="#use14547"
       id="use56641"
       transform="translate(99.483333)"
       width="100%"
       height="100%" />
    <use
       x="0"
       y="0"
       xlink:href="#use14549"
       id="use56643"
       transform="translate(99.483333)"
       width="100%"
       height="100%" />
    <use
       x="0"
       y="0"
       xlink:href="#use14551"
       id="use56645"
       transform="translate(99.483333)"
       width="100%"
       height="100%" />
    <use
       x="0"
       y="0"
       xlink:href="#use14553"
       id="use56647"
       transform="translate(99.483333)"
       width="100%"
       height="100%" />
    <use
       x="0"
       y="0"
       xlink:href="#use14555"
       id="use56649"
       transform="translate(99.483333)"
       width="100%"
       height="100%" />
    <use
       x="0"
       y="0"
       xlink:href="#use14557"
       id="use56651"
       transform="translate(99.483333)"
       width="100%"
       height="100%" />
    <use
       x="0"
       y="0"
       xlink:href="#use14559"
       id="use56653"
       transform="translate(99.483333)"
       width="100%"
       height="100%" />
    <use
       x="0"
       y="0"
       xlink:href="#use14561"
       id="use56655"
       transform="translate(99.483333)"
       width="100%"
       height="100%" />
    <use
       x="0"
       y="0"
       xlink:href="#use14563"
       id="use56657"
       transform="translate(99.483333)"
       width="100%"
       height="100%" />
    <use
       x="0"
       y="0"
       xlink:href="#use14565"
       id="use56659"
       transform="translate(99.483333)"
       width="100%"
       height="100%" />
    <use
       x="0"
       y="0"
       xlink:href="#use14567"
       id="use56661"
       transform="translate(99.483333)"
       width="100%"
       height="100%" />
  </g>
  <g
     inkscape:groupmode="layer"
     id="layer2"
     inkscape:label="content"
     style="display:inline"
     transform="translate(0,-189.05003)" />
</svg>
