<svg xmlns="http://www.w3.org/2000/svg" xmlns:svg="http://www.w3.org/2000/svg" xmlns:xlink="http://www.w3.org/1999/xlink" id="svg2" width="24" height="24" version="1.1"><defs id="defs4"><linearGradient id="linearGradient3755"><stop style="stop-color:#fbfa7a;stop-opacity:1" id="stop3757" offset="0"/><stop style="stop-color:#e5bd24;stop-opacity:1" id="stop3759" offset="1"/></linearGradient><linearGradient id="linearGradient3761" x1="12" x2="12" y1="3.458" y2="19.333" gradientTransform="matrix(1.0000221,0,0,0.99999946,-3.8416352e-5,1028.3621)" gradientUnits="userSpaceOnUse" xlink:href="#linearGradient3755"/><linearGradient id="linearGradient3773" x1="12" x2="12" y1="2" y2="23" gradientTransform="translate(0,1028.3622)" gradientUnits="userSpaceOnUse" xlink:href="#linearGradient3755"/></defs><metadata id="metadata7"/><g id="layer1" transform="translate(0,-1028.3622)"><path id="path3775" d="m 13.000921,1031.6621 c -1.003337,0 -10.5029573,17.63 -10.0006718,18.5 0.5022857,0.87 19.5001038,0.8664 20.0004418,-2e-4 0.500338,-0.8666 -8.996433,-18.4998 -9.99977,-18.4998 z" style="fill:#b3b3b3;fill-opacity:1;stroke:#b3b3b3;stroke-width:1.00001085px;stroke-linecap:butt;stroke-linejoin:miter;stroke-opacity:1"/><path style="fill:url(#linearGradient3761);fill-opacity:1;stroke:#f0db4f;stroke-width:1.00001085px;stroke-linecap:butt;stroke-linejoin:miter;stroke-opacity:1" id="path2985" d="m 12.000227,1030.8621 c -1.003337,0 -10.5025068,17.63 -10.0002212,18.5 0.5022856,0.87 19.5001042,0.8666 20.0004422,0 0.500338,-0.8666 -8.996884,-18.5 -10.000221,-18.5 z"/><g style="font-size:12px;font-style:normal;font-weight:400;line-height:125%;letter-spacing:0;word-spacing:0;fill:#000;fill-opacity:1;stroke:none;font-family:Sans" id="text3781" transform="matrix(1.0000221,0,0,0.99999946,-3.8416352e-5,4.1124988e-4)"><path d="m 11,1045.8622 2,0 0,1.5 -2,0 0,-1.5 m 0,-8.5 2,0 0,5 -0.25,2 -1.5,0 -0.25,-2" style="font-size:14px" id="path3786"/></g></g></svg>